# xmcd
#
# Track frame offsets:
#	150
#	18102
#	36240
#	47352
#	71465
#	94632
#	111249
#	138441
#	160910
#	184174
#	197609
#
# Disc length: 2975 seconds
#
# Revision: 0
# Processed by: cddbd v1.5.2PL0 Copyright (c) Steve Scherf et al.
# Submitted via: EasyCDDAExtractor 7.5.0.1
#
DISCID=890b9d0b
DTITLE=Sarah McLachlan - Afterglow Disc B
DYEAR=2004
DGENRE=Easy Listening
TTITLE0=Sweet Sunday
TTITLE1=Adia
TTITLE2=Lost Dance
TTITLE3=Hold On
TTITLE4=Good Enough
TTITLE5=I Will Remember
TTITLE6=The Path Of Thorns (Rerms)
TTITLE7=Fear
TTITLE8=Possession
TTITLE9=Ice Cream
TTITLE10=Fumbling Towards Ecstasy
EXTD=
EXTT0=
EXTT1=
EXTT2=
EXTT3=
EXTT4=
EXTT5=
EXTT6=
EXTT7=
EXTT8=
EXTT9=
EXTT10=
PLAYORDER=
